<?xml version="1.0" standalone="no"?>
<!DOCTYPE svg PUBLIC "-//W3C//DTD SVG 20010904//EN"
 "http://www.w3.org/TR/2001/REC-SVG-20010904/DTD/svg10.dtd">
<svg version="1.0" xmlns="http://www.w3.org/2000/svg"
 width="512.000000pt" height="512.000000pt" viewBox="0 0 512.000000 512.000000"
 preserveAspectRatio="xMidYMid meet">

<g transform="translate(0.000000,512.000000) scale(0.100000,-0.100000)"
fill="linear-gradient(to right, #FCEABB 0%, #FCCD4D 30%, #F8B500 47%, #FBDF93 72%);" stroke="none">
<path d="M1368 5107 c-75 -21 -144 -80 -178 -152 -17 -34 -20 -63 -20 -202 l0
-161 -287 -4 -288 -4 -87 -30 c-219 -78 -387 -247 -465 -469 l-28 -80 0 -1715
0 -1715 26 -66 c48 -124 98 -200 193 -294 74 -74 107 -99 176 -132 164 -80
-10 -74 2175 -71 l1950 3 80 27 c226 77 391 246 473 483 l27 80 0 1685 c0
1907 8 1729 -83 1905 -81 157 -245 300 -408 354 -101 33 -178 41 -426 41
l-238 0 0 135 c0 73 -5 156 -10 182 -14 66 -72 139 -140 177 -47 26 -65 31
-130 31 -59 0 -84 -5 -120 -23 -60 -32 -102 -73 -130 -129 -21 -42 -23 -60
-22 -162 1 -64 -1 -137 -4 -163 l-6 -48 -843 0 -843 0 -4 168 c-3 163 -4 168
-32 220 -60 108 -189 162 -308 129z m-128 -980 c76 -83 205 -112 303 -69 57
25 126 87 146 132 l16 35 3 -67 c2 -37 -2 -85 -8 -107 -17 -65 -69 -131 -130
-165 -48 -27 -65 -31 -130 -31 -88 0 -130 17 -189 77 -55 54 -81 128 -81 226
1 75 1 76 15 45 7 -18 32 -52 55 -76z m2246 -1 c52 -50 99 -70 182 -74 112 -6
205 39 260 126 l23 37 -3 -90 c-5 -106 -25 -154 -90 -209 -108 -93 -260 -85
-363 17 -64 64 -85 121 -85 226 l1 76 19 -37 c11 -20 36 -53 56 -72z m733
-732 c71 -21 133 -82 149 -147 23 -89 -23 -182 -111 -230 l-42 -22 -1640 -3
c-1163 -2 -1651 0 -1678 8 -49 14 -106 65 -128 115 -37 82 -13 188 55 240 74
57 -24 54 1727 54 1438 1 1621 -1 1668 -15z m-1564 -563 c74 -33 100 -79 107
-185 3 -37 5 -39 58 -60 127 -49 220 -122 288 -227 50 -76 86 -195 78 -252
-15 -98 -83 -162 -185 -174 -42 -5 -59 -1 -105 21 -63 31 -90 68 -106 143 -7
34 -21 60 -41 79 -30 29 -31 29 -179 32 -173 4 -197 -4 -231 -70 -37 -73 -11
-181 54 -215 25 -13 70 -18 212 -24 152 -5 189 -9 237 -28 132 -51 242 -151
303 -275 73 -149 73 -393 -1 -544 -54 -111 -183 -219 -306 -259 -57 -18 -57
-19 -64 -63 -17 -117 -100 -193 -211 -193 -109 0 -213 92 -213 187 l0 42 -57
18 c-149 46 -283 150 -336 260 -97 198 -28 345 161 346 101 0 170 -42 193
-120 14 -46 27 -63 69 -89 31 -19 50 -21 173 -21 155 0 191 10 220 59 22 37
24 169 3 210 -29 55 -50 61 -219 61 -183 0 -238 9 -335 55 -89 42 -171 117
-222 205 -61 103 -72 157 -68 328 3 140 4 150 34 212 17 36 50 89 73 117 52
66 163 145 245 174 l64 23 6 58 c9 91 55 158 121 177 52 16 137 12 180 -8z
m-1157 -513 c127 -85 127 -271 0 -356 l-42 -27 -280 0 -281 0 -47 27 c-115 68
-131 235 -31 330 58 56 74 58 369 55 l271 -2 41 -27z m2723 15 c90 -29 149
-108 149 -200 0 -51 -47 -129 -97 -162 -69 -46 -122 -53 -373 -49 -218 3 -226
4 -270 28 -161 91 -138 323 39 386 25 9 105 13 267 14 193 0 241 -3 285 -17z
m-16 -740 c93 -31 165 -127 165 -219 0 -46 -46 -128 -88 -157 -64 -45 -82 -47
-343 -47 -234 0 -252 1 -295 21 -163 77 -163 313 -1 394 50 25 55 25 282 25
190 0 240 -3 280 -17z m-2740 -12 c73 -33 135 -122 135 -195 0 -82 -81 -184
-162 -204 -61 -15 -463 -16 -523 -1 -88 22 -165 117 -165 204 0 42 29 116 58
149 9 10 40 29 67 42 48 23 58 24 300 24 220 0 255 -3 290 -19z"/>
</g>
</svg>
